<svg width="56" height="56" viewBox="0 0 56 56" fill="none" xmlns="http://www.w3.org/2000/svg">
    <path d="M28 4C14.7451 4 4 14.7451 4 28C4 41.2549 14.7451 52 28 52C41.2549 52 52 41.2549 52 28C52 14.7451 41.2549 4 28 4ZM50.4392 28C50.4392 40.393 40.393 50.4392 28 50.4392C15.6072 50.4392 5.56098 40.393 5.56098 28C5.56098 15.6072 15.6072 5.56077 28 5.56077C40.393 5.56077 50.4392 15.6072 50.4392 28Z" fill="#6F6F6E"/>
    <path d="M28 13.7678V14.5483C35.4173 14.5483 41.4519 20.5828 41.4519 28H42.2321C42.2321 20.1399 35.8602 13.7678 28 13.7678ZM28 41.4519C20.5826 41.4519 14.5481 35.4173 14.5481 28H13.7678C13.7678 35.8602 20.1399 42.2321 28 42.2321" fill="#6F6F6E"/>
    <path d="M39.6316 17.8181C39.9572 18.1683 40.4267 18.7331 40.6907 19.0755L45.5507 15.9902C45.3079 15.6724 44.9219 15.19 44.6319 14.8506L41.5547 16.8857L41.3451 17.0668L41.502 16.8379L42.8605 14.1253L41.9002 13.1648L39.187 14.5239L38.9583 14.6802L39.1404 14.4698L41.1768 11.3931C40.8187 11.0883 40.4748 10.8088 40.035 10.47L36.9492 15.326C37.3402 15.6273 37.8551 16.0685 38.1832 16.3689L41.0876 14.8621L41.2735 14.7255L41.1369 14.9116L39.6316 17.8181Z" fill="#6F6F6E"/>
    <path d="M28.6049 11.6643L29.9326 8.69029L30.0173 8.42677L29.9932 8.70204L30.1329 12.6764C30.5987 12.7209 31.0798 12.7851 31.5546 12.8638L31.3385 6.97658C30.6747 6.90335 30.0142 6.8509 29.3539 6.823L28.0462 10.0696L28 10.3106L27.9539 10.0696L26.6463 6.823C25.9859 6.8509 25.3254 6.90335 24.6617 6.97658L24.4454 12.8638C24.9204 12.7851 25.4013 12.7209 25.8671 12.6764L26.0068 8.70204L25.9827 8.42677L26.0675 8.69029L27.3951 11.6643H28.6049Z" fill="#6F6F6E"/>
    <path d="M17.8638 16.3555C18.631 15.5469 19.0666 14.6126 18.2979 13.7205C17.8801 13.2357 17.1794 13.1301 16.5969 13.3697L16.5395 13.3926L16.5583 13.3418C16.6444 13.1123 16.6989 12.3788 16.0737 11.8717C15.769 11.6248 15.387 11.5335 14.9995 11.5727C14.2788 11.6457 13.7234 12.1382 12.213 13.8227C11.7579 14.3302 11.0947 15.1323 10.6959 15.652C10.6957 15.652 14.8427 19.5864 14.8427 19.5864C16.2208 18.0629 16.7807 17.4971 17.8638 16.3555ZM12.4532 15.3938C13.2885 14.3722 14.1762 13.4455 14.579 13.0781C14.7061 12.9621 14.8442 12.8473 15.012 12.8009C15.2846 12.7258 15.5655 12.9197 15.6291 13.1992C15.6931 13.4799 15.5162 13.7461 15.3207 13.9664C14.8788 14.4641 13.2597 16.1589 13.2597 16.1589L12.4532 15.3938ZM14.0763 16.934C14.0763 16.934 15.6543 15.2666 16.1685 14.7329C16.3727 14.5205 16.5042 14.3928 16.6456 14.3233C16.8273 14.2337 17.026 14.2163 17.2039 14.3349C17.3787 14.4513 17.4599 14.6544 17.4156 14.8539C17.3627 15.0918 17.1691 15.3193 17.0075 15.4928C16.79 15.7259 14.9189 17.7281 14.9162 17.731L14.0763 16.934Z" fill="#6F6F6E"/>
    <path d="M28.0002 13.7681V28.0002H13.7681C13.7681 20.1345 20.1345 13.7681 28.0002 13.7681Z" fill="#0066B1"/>
    <path d="M42.2324 28.0002C42.2324 35.8662 35.866 42.2324 28.0002 42.2324V28.0002H42.2324Z" fill="#0066B1"/>
</svg>
