<svg xmlns="http://www.w3.org/2000/svg" width="56" height="56" viewBox="0 0 56 56" fill="none">
    <path d="M28 4C14.7451 4 4 14.7453 4 28C4 41.2547 14.7451 52 28 52C41.2547 52 51.9998 41.2547 51.9998 28C51.9998 14.7453 41.2547 4 28 4ZM50.4391 28C50.4391 40.3928 40.3928 50.4391 28 50.4391C15.6072 50.4391 5.56093 40.3928 5.56093 28C5.56093 15.6072 15.6072 5.56093 28 5.56093C40.3928 5.56093 50.4391 15.6072 50.4391 28Z" fill="white"/>
    <path d="M39.6313 17.8183C39.957 18.1685 40.4266 18.7332 40.6905 19.0756L45.5506 15.9904C45.3079 15.6727 44.9217 15.1904 44.6318 14.8509L41.5544 16.886L41.3449 17.067L41.5018 16.8381L42.8604 14.1255L41.9 13.1651L39.1868 14.5241L38.9582 14.6805L39.1403 14.4699L41.1767 11.3934C40.8186 11.0886 40.4745 10.809 40.0348 10.4702L36.9491 15.3264C37.3401 15.6277 37.855 16.0687 38.1831 16.3693L41.0874 14.8624L41.2734 14.7257L41.1368 14.9118L39.6313 17.8183Z" fill="white"/>
    <path d="M28.6048 11.6646L29.9325 8.69047L30.0171 8.42706L29.9932 8.70219L30.1329 12.6766C30.5986 12.7211 31.0796 12.7855 31.5544 12.8639L31.3384 6.97687C30.6745 6.90367 30.0141 6.85102 29.3537 6.823L28.046 10.0698L28 10.3108L27.9538 10.0698L26.6461 6.823C25.9858 6.85102 25.3253 6.90367 24.6616 6.97687L24.4454 12.8639C24.9203 12.7855 25.4012 12.7211 25.8671 12.6766L26.0069 8.70219L25.9828 8.42706L26.0673 8.69047L27.3951 11.6646H28.6048Z" fill="white"/>
    <path d="M17.8637 16.3555C18.6309 15.547 19.0665 14.6125 18.2978 13.7206C17.8799 13.2359 17.1791 13.1301 16.5968 13.3697L16.5392 13.3926L16.5581 13.3419C16.6442 13.1122 16.6988 12.3787 16.0734 11.8718C15.7688 11.6249 15.3869 11.5335 14.9993 11.5727C14.2786 11.6457 13.7232 12.1383 12.2129 13.8228C11.7577 14.3303 11.0946 15.1322 10.6956 15.6521L14.8426 19.5863C16.2206 18.0629 16.7805 17.497 17.8637 16.3555ZM12.453 15.3938C13.2883 14.3722 14.176 13.4456 14.5788 13.0781C14.7059 12.9621 14.8441 12.8475 15.0119 12.8009C15.2843 12.7259 15.5654 12.9197 15.6289 13.1992C15.6928 13.4801 15.516 13.7462 15.3207 13.9665C14.8786 14.4641 13.2596 16.159 13.2596 16.159L12.453 15.3938ZM14.0761 16.934C14.0761 16.934 15.6542 15.2666 16.1683 14.7328C16.3726 14.5207 16.5039 14.393 16.6455 14.3233C16.8272 14.2338 17.0258 14.2163 17.2038 14.3349C17.3785 14.4514 17.4597 14.6543 17.4154 14.854C17.3625 15.092 17.1688 15.3194 17.0073 15.4928C16.7899 15.726 14.9187 17.7281 14.9159 17.731L14.0761 16.934Z" fill="white"/>
    <path d="M42.2323 28.0002H28.0002V13.7681C35.866 13.7681 42.2323 20.1344 42.2323 28.0002Z" fill="white"/>
    <path d="M28.0002 28.0002V42.2323C20.1344 42.2323 13.7681 35.8662 13.7681 28.0002H28.0002Z" fill="white"/>
    <path d="M28.0002 13.7681V28.0002H13.7681C13.7681 20.1344 20.1344 13.7681 28.0002 13.7681Z" fill="#0066B1"/>
    <path d="M42.2323 28.0002C42.2323 35.8662 35.866 42.2323 28.0002 42.2323V28.0002H42.2323Z" fill="#0066B1"/>
</svg>