<?xml version="1.0" encoding="utf-8"?>
<!-- Generator: Adobe Illustrator 18.0.0, SVG Export Plug-In . SVG Version: 6.00 Build 0)  -->
<!DOCTYPE svg PUBLIC "-//W3C//DTD SVG 1.1//EN" "http://www.w3.org/Graphics/SVG/1.1/DTD/svg11.dtd">
<svg version="1.1" id="Ebene_1" xmlns="http://www.w3.org/2000/svg" xmlns:xlink="http://www.w3.org/1999/xlink" x="0px" y="0px"
	 width="217.7px" height="39.6px" viewBox="0 0 217.7 39.6" enable-background="new 0 0 217.7 39.6" xml:space="preserve">
<g>
	<path d="M217.7,30.6h-29.4v-1h29.4V30.6L217.7,30.6z M202.9,25l2.8-2.7l1.1,1.1l-3,2.5c-0.2,0.3-0.4,0.8-0.6,1.1H201
		C201.2,26.3,202.3,25.3,202.9,25L202.9,25z M193.7,8c-0.1,0-2.3,0.6-2.3,0.6s-1,0.4-1.5,0.7s-1,0.8-1,1.1l2,0.5
		c0.3-0.3,0.6-0.7,0.9-0.9l0.5-0.2l1.6-1.7C193.9,8.1,193.8,8,193.7,8L193.7,8z M207,13.4c-1.3-1.4-2.3-2.7-3.3-4.2
		c0.7-1.3,1.1-4.6,0.8-5.9c-0.1-0.4-1.2-1.8-1.4-2.1C202.8,1,201.9,0,201.5,0c-0.1,0-0.2,0-0.2,0.1l0.1,1.1C200.2,2,198.7,3,197.3,4
		c0,0.4,0,1,0.1,1.2c0.2,0.2,0.5,0.3,0.7,0.4c0.5-0.1,2.2-0.5,2.7-0.5l-1.7,2.5L197.2,9l-2.4-0.8c-0.2,0-0.3,0-0.4,0.1l-1.7,1.9
		c-0.1,0.1-0.2,0.2-0.2,0.4l-0.1,2.1c0,0,0,0.3,0,0.7c0,1.5,0.7,2.3,0.7,2.3l1.1-1.7c-0.2-0.2-0.4-0.9-0.5-1.2c0-0.1,0-1.8,0-1.8
		l1.1-0.8l3,2.1c0,0,0.8,1.5,1.6,2.4c0.5,0.6,3.1,2.3,4.3,3.1c0.1,0.7,0.4,1.7,0.6,2.3l3.6,3.7l-2.1,2.7c-0.8,0.5-1.5,1.4-1.4,2.2
		h2.5l0.3-1.4l3-3.3c0.2-0.2,0.2-0.3,0.1-0.5l-0.8-2.8c0.4-0.5,1.3-1.7,1.3-3.1C210.7,14.9,207.9,14.2,207,13.4L207,13.4z
		 M211.6,17.8c-0.2-0.7-0.5-1.5-0.7-1.9c0,0,0.1-0.1,0.4,0c0.2,0.2,1.8,1.2,1.8,1.2c0.8,1.1,1.3,5.8,1.3,7.5
		c-0.7-0.3-1.7-0.9-2.4-1.5L211.6,17.8L211.6,17.8z"/>
	<path d="M135.1,16.8c0-1.8-0.6-3.2-2.1-3.2c-1.6,0-2.2,1.4-2.2,3.2v11.9h1.8v1.9h-10.1v-1.9h1.9V12.3h-1.9v-1.8h7.9v3.1h0.1
		c0.8-1.7,2.5-3.5,5.3-3.5c3,0,4.8,1.8,5.3,4.2c0.2,0.9,0.3,2.5,0.3,3.3v11.2h2.4v1.9H135L135.1,16.8L135.1,16.8z M94.5,16.8
		c0-1.8-0.6-3.2-2.1-3.2c-1.6,0-2.2,1.4-2.2,3.2v11.9H92v1.9H81.9v-1.9h1.9V12.3h-1.9v-1.8h7.9v3.1h0.1c0.8-1.7,2.5-3.5,5.3-3.5
		c3,0,4.8,1.8,5.3,4.2c0.2,0.9,0.3,2.5,0.3,3.3v11.2h2.4v1.9h-8.8L94.5,16.8L94.5,16.8z M152.4,12.3v14.9c0,1,0.7,1.3,1.3,1.3
		s1.2-0.2,1.2-0.2v1.8c0,0-1.2,0.8-3.9,0.8c-3.1,0-5-1.5-5-4.8V12.3h-2.1v-1.4c2.4-1.9,5.2-4.1,7.4-5.9h1.2v5.4h3.1v1.8L152.4,12.3
		L152.4,12.3z M26.8,0c0,0,4.9,4.9,7.1,7.4v1.9c-2.1-2.2-6.4-4-10.4-4c-9.1,0-14.8,6.8-14.8,15.3c0,8.4,5.4,15.3,14.8,15.3
		c4.7,0,8.4-2.2,10.5-4.5v1.8c-2.8,3.9-8,6.4-14.5,6.4C8,39.6,0,31.2,0,20.5s8.8-19,19.5-19c2.7,0,5.2,0.5,7.3,1.2V0L26.8,0z
		 M119.6,25.2c-0.9,1.1-2.3,1.9-4.4,1.9c-1.8,0-4.7-1-4.8-5.7h10.8c0-0.4,0.1-1.1,0.1-1.4c0-5.7-2.3-9.9-8.4-9.9s-9.2,4.7-9.2,10.5
		s3.1,10.4,9.2,10.4c3.9,0,6.4-1.8,7.8-4.7L119.6,25.2L119.6,25.2z M110.4,19.4c0-5.3,0.4-7.3,2.2-7.3c1.8,0,2.2,1.9,2.3,7.3H110.4
		L110.4,19.4z M21.6,20.5c0-6.2,0.6-8.9,2.7-8.9s2.7,2.7,2.7,8.9c0,6.1-0.6,8.9-2.7,8.9C22.1,29.3,21.6,26.6,21.6,20.5 M14.1,20.5
		c0,6.1,3.7,11,10.1,11s10.1-4.9,10.1-11s-3.7-11-10.1-11S14.1,14.4,14.1,20.5 M48.6,16.8c0-1.8-0.6-3.2-2.1-3.2
		c-1.6,0-2.2,1.4-2.2,3.2v11.9h1.8v1.9H36v-1.9h1.9V12.3H36v-1.8h7.9v3.1H44c0.8-1.7,2.5-3.5,5.3-3.5c3,0,4.8,1.8,5.3,4.2
		c0.2,0.9,0.3,2.5,0.3,3.3v11.2h2.4v1.9h-8.8L48.6,16.8L48.6,16.8z M71.4,5.1c0,1.8,1.6,3,3.9,3s3.9-1.2,3.9-3s-1.6-3-3.9-3
		C73,2.2,71.4,3.3,71.4,5.1 M65.9,12.3v14.9c0,1,0.7,1.3,1.3,1.3c0.6,0,1.2-0.2,1.2-0.2v1.8c0,0-1.2,0.8-3.9,0.8c-3.1,0-5-1.5-5-4.8
		V12.3h-2.1v-1.4c2.3-1.9,5.1-4,7.3-5.9h1.2v5.4h2.5v1.8h-2.5V12.3z M183.5,28.7h2.5v1.9h-8.8V4.9H175V3h8.6v25.7H183.5z
		 M166.5,20.6c-0.2-0.2-0.6-0.4-1.4-0.4c-1.9,0-2.3,1.9-2.3,3.8s0.6,3.4,2.2,3.4c0.8,0,1.3-0.3,1.5-0.6V20.6L166.5,20.6z
		 M166.7,28.2L166.7,28.2c-1.3,1.7-2.8,2.8-5.2,2.8c-3.3,0-5.3-2.8-5.3-6.1c0-4,2.9-6.6,7.4-6.6c1.9,0,2.9,0.4,2.9,0.4v-1.3
		c0-2.4-1.5-3.7-3.7-3.7c-3,0-4.6,2.4-4.6,2.4l-1.1-1.4c2-3.1,5.1-4.6,8-4.6c4.9,0,7.8,2.9,7.8,7.3v11.3h2v1.9h-8.1L166.7,28.2
		L166.7,28.2z M70.2,30.6v-1.9H72V12.3h-1.8v-1.8h8.2v18.2h1.9v1.9H70.2L70.2,30.6z"/>
</g>
</svg>
