<svg xmlns="http://www.w3.org/2000/svg" width="26" height="26" viewBox="0 0 26 26"><defs><style>.a{fill:#1c69d4;}.b{fill:#fff;}</style></defs><g transform="translate(-43 -1619)"><circle class="a" cx="13" cy="13" r="13" transform="translate(43 1619)"/><path class="b" d="M3.75,18H5v.625H0V18H1.25V8.625H0V8H3.75ZM3.828,5.578A1.808,1.808,0,0,1,2.5,6.125a1.808,1.808,0,0,1-1.328-.547A1.808,1.808,0,0,1,.625,4.25a1.808,1.808,0,0,1,.547-1.328A1.808,1.808,0,0,1,2.5,2.375a1.808,1.808,0,0,1,1.328.547A1.808,1.808,0,0,1,4.375,4.25,1.808,1.808,0,0,1,3.828,5.578Z" transform="translate(53.5 1621)"/></g></svg>