<svg xmlns="http://www.w3.org/2000/svg" width="14.922" height="8.527" viewBox="0 0 14.922 8.527"><defs><style>.a{fill:#1c69d4;}</style></defs><path class="a" d="M7.461-10.625q3.664,0,7.461,4.3-.9.9-1.149,1.132T12.557-4.163a9.032,9.032,0,0,1-1.565,1.1,12.9,12.9,0,0,1-1.582.633A6.041,6.041,0,0,1,7.461-2.1a7.627,7.627,0,0,1-2.2-.3,6.612,6.612,0,0,1-2-1.033A19.626,19.626,0,0,1,1.7-4.679Q1.132-5.2,0-6.362A22.788,22.788,0,0,1,3.847-9.576,6.707,6.707,0,0,1,7.461-10.625ZM5.346-4.23a2.859,2.859,0,0,0,2.115.9,2.859,2.859,0,0,0,2.115-.9,2.94,2.94,0,0,0,.883-2.132,2.94,2.94,0,0,0-.883-2.132,2.859,2.859,0,0,0-2.115-.9,2.859,2.859,0,0,0-2.115.9,2.94,2.94,0,0,0-.883,2.132A2.94,2.94,0,0,0,5.346-4.23Zm2.115-3.2a1.037,1.037,0,0,0,.3.766,1.037,1.037,0,0,0,.766.3,1.156,1.156,0,0,0,.666-.233v.233a1.73,1.73,0,0,1-.5,1.249A1.647,1.647,0,0,1,7.461-4.6a1.647,1.647,0,0,1-1.232-.516,1.73,1.73,0,0,1-.5-1.249,1.73,1.73,0,0,1,.5-1.249,1.647,1.647,0,0,1,1.232-.516h.266A1.1,1.1,0,0,0,7.461-7.427Z" transform="translate(0 10.625)"/></svg>